<?xml version="1.0" standalone="no"?>
<!DOCTYPE svg PUBLIC "-//W3C//DTD SVG 1.1//EN" "http://www.w3.org/Graphics/SVG/1.1/DTD/svg11.dtd" >
<svg xmlns="http://www.w3.org/2000/svg">
<metadata>
Created by FontPrep 20130207 at Thu Aug  1 10:53:49 2013
 By Humberto 
Copyright (c) 2011 by Omnibus-Type (www.omnibus-type.com), with Reserved Font Name "Chivo".
</metadata>
<defs>
<font id="7ac8a1b88f8673c4127393d69b1bf8b0" >
  <font-face 
    font-family="Chivo-Regular"
    font-weight="400"
    font-stretch="normal"
    units-per-em="2048"
    panose-1="2 0 0 0 0 0 0 0 0 0"
    ascent="1638"
    descent="-410"
    x-height="1047"
    cap-height="1405"
    bbox="-164 -512 2056.01 1896"
    underline-thickness="102"
    underline-position="-102"
    unicode-range="U+0020-FB02"
  />
<missing-glyph horiz-adv-x="1024" 
d="M102 195l349 522l-349 522v-1044zM860 102l-348 523l-348 -523h696zM922 195v1044l-349 -522zM860 1331h-696l348 -522zM0 1434h1024v-1434h-1024v1434z" />
    <glyph glyph-name=".notdef" horiz-adv-x="1024" 
d="M102 195l349 522l-349 522v-1044zM860 102l-348 523l-348 -523h696zM922 195v1044l-349 -522zM860 1331h-696l348 -522zM0 1434h1024v-1434h-1024v1434z" />
    <glyph glyph-name=".null" horiz-adv-x="0" 
 />
    <glyph glyph-name="nonmarkingreturn" horiz-adv-x="681" 
 />
    <glyph glyph-name="space" unicode=" " horiz-adv-x="499" 
 />
    <glyph glyph-name="exclam" unicode="!" horiz-adv-x="550" 
d="M395 1405q-6 -47 -51 -1049h-135q-47 999 -49 1049h235zM174 227h207v-227h-207v227z" />
    <glyph glyph-name="quotedbl" unicode="&#x22;" horiz-adv-x="745" 
d="M446 1405h168v-301q-29 -164 -45 -270h-80l-43 270v301zM131 1405h168v-301l-43 -270h-80l-45 270v301z" />
    <glyph glyph-name="numbersign" unicode="#" horiz-adv-x="1316" 
d="M473 522h307l70 318h-307zM139 995h283l96 430h156l-96 -430h307l96 430h156l-97 -430h215v-155h-249l-70 -318h238v-155h-273l-82 -367h-155l81 367h-307l-82 -367h-155l82 367h-226v155h260l70 318h-248v155z" />
    <glyph glyph-name="dollar" unicode="$" horiz-adv-x="1118" 
d="M549 215q311 0 311 199q0 80 -56 122t-142.5 69.5t-327 82.5t-240.5 316q0 179 119 272q106 86 289 98l-23 182h150l-23 -182q182 -8 298 -98t116 -262v-25h-195v29q0 90 -74.5 136t-189.5 46t-193.5 -40t-78.5 -132q0 -126 213 -180t295 -84.5t137 -71.5
q119 -90 119 -250q0 -199 -121 -297t-326 -106l23 -174h-150l21 176q-309 20 -402 217q-35 72 -35 170l3 37h194l-2 -39q0 -109 82 -160t209 -51z" />
    <glyph glyph-name="percent" unicode="%" horiz-adv-x="1431" 
d="M1239 479q0 51 -31.5 86t-91 35t-92.5 -35t-33 -86v-248q0 -51 33 -85.5t92.5 -34.5t91 34.5t31.5 85.5v248zM1370 246q0 -104 -68 -176t-180 -72h-14q-111 0 -180 72q-68 72 -68 176v219q0 104 69 176t179 72h14q111 0 180 -72t68 -176v-219zM440 1169q0 51 -31.5 86
t-91 35t-92 -34.5t-32.5 -86.5v-247q0 -51 32.5 -86t92 -35t91 34.5t31.5 86.5v247zM571 936q-1 -104 -69 -176t-178 -72h-15q-111 0 -179 72t-69 176v219q0 104 68 176q70 72 180 72h15q112 0 180 -72t67 -176v-219zM362 0h-143l856 1405h139z" />
    <glyph glyph-name="ampersand" unicode="&#x26;" horiz-adv-x="1355" 
d="M641 627q-322 1 -322 -223q1 -112 91 -168q90 -54 233 -54h231v445h-233zM596 1425q76 0 143 -14v-186q-59 18 -115 18q-119 0 -196 -54q-78 -55 -78 -153t76 -164q80 -63 201 -63h252l57 293h139v-293h221v-182h-221v-627h-461q-211 0 -353 99t-142 296q0 252 258 330
l6 4q-98 43 -164.5 116t-66.5 181.5t37.5 180t100 120.5t146.5 73.5t160 24.5z" />
    <glyph glyph-name="quotesingle" unicode="'" horiz-adv-x="430" 
d="M131 1405h168v-301l-45 -270h-80l-43 270v301z" />
    <glyph glyph-name="parenleft" unicode="(" horiz-adv-x="591" 
d="M100 540.5q0 239.5 84 462t242 402.5h106q-184 -293 -242 -630t54 -691q68 -211 188 -406h-106q-158 180 -242 401.5t-84 461z" />
    <glyph glyph-name="parenright" unicode=")" horiz-adv-x="589" 
d="M492 542q0 -238 -84 -460.5t-242 -403.5h-107q182 289 241 629t-54 692q-70 217 -187 406h107q158 -180 242 -402.5t84 -460.5z" />
    <glyph glyph-name="asterisk" unicode="*" horiz-adv-x="958" 
d="M563 958l223 -256l-131 -100l-180 295l-178 -291l-131 99l227 256l-334 81l52 158l317 -135l-27 340h162l-33 -342l324 133l47 -160z" />
    <glyph glyph-name="plus" unicode="+" 
d="M713 608h440v-172h-440v-436h-170v436h-439v172h439v439h170v-439z" />
    <glyph glyph-name="comma" unicode="," horiz-adv-x="487" 
d="M141 0v227h207v-174l-72 -307h-106l55 254h-84z" />
    <glyph glyph-name="hyphen" unicode="-" horiz-adv-x="800" 
d="M141 653h518v-200h-518v200z" />
    <glyph glyph-name="period" unicode="." horiz-adv-x="489" 
d="M141 227h207v-227h-207v227z" />
    <glyph glyph-name="slash" unicode="/" horiz-adv-x="1228" 
d="M197 -350h-166l1003 1755h164z" />
    <glyph glyph-name="zero" unicode="0" 
d="M911 967q0 117 -79.5 196.5t-201.5 79.5t-203 -78t-81 -198v-529q0 -120 81 -198t203 -78t201.5 80t79.5 196v529zM1112 453q0 -205 -134 -339t-337 -134h-27q-204 0 -336 135t-133 338v497q0 207 134.5 341t334.5 134h27q199 0 335 -133t136 -342v-497z" />
    <glyph glyph-name="one" unicode="1" 
d="M772 1405v-1223h369v-182h-938v182h368v955h-372v131q240 25 495 137h78z" />
    <glyph glyph-name="two" unicode="2" 
d="M143 49q0 129 74 240q47 72 117 123l407 307q135 106 154 219q6 35 6 67q0 85 -49 148q-74 90 -215 90q-176 0 -250 -127q-43 -74 -43 -143v-29q0 -12 2 -24h-201q-2 14 -2 20v16q0 133 72 257t227 182q82 31 257.5 30.5t299.5 -143.5q103 -115 103 -256t-37 -211
q-68 -125 -213 -237l-391 -299q-51 -35 -75 -60.5t-24 -36.5h746v-182h-965v49z" />
    <glyph glyph-name="three" unicode="3" 
d="M920 397q0 226 -316 226h-153v184h157q188 0 256 123q23 41 23 123.5t-77 135.5q-77 54 -198 54q-178 0 -239 -123q-20 -41 -21 -94v-18h-200v36q0 172 131 277q133 104 329 104h19q199 1 327 -105t129 -276q0 -125 -63 -197.5t-160 -117.5l2 -6q111 -35 182.5 -120
t71.5 -226q0 -176 -138 -287t-351 -110h-25q-229 0 -358 114t-129 303v17h200v-23q0 -113 76 -171t216 -58t224.5 57t84.5 178z" />
    <glyph glyph-name="four" unicode="4" 
d="M764 528v408q72 139 110 281h91v-689h178v-182h-178v-346h-201v346h-662v184q279 418 437 895h215q-70 -253 -214 -515t-247 -382h471z" />
    <glyph glyph-name="five" unicode="5" 
d="M654 915q235 0 358 -141q104 -122 104 -326t-132 -336t-351 -132t-351 132t-137 326h201q4 -123 88 -200q78 -76 199 -76t201 78t81 210t-77 212t-199 81q-176 0 -264 -141l-180 27l57 776h790v-182h-622l-31 -412q131 104 265 104z" />
    <glyph glyph-name="six" unicode="6" 
d="M930 432q0 123 -82 196.5t-202 73.5t-202 -74t-82 -196t82 -196t202 -74t202 73.5t82 196.5zM678 885q188 0 320 -124q132 -123 132 -325t-138 -330t-345 -127t-344 127q-141 135 -141 351v495q0 197 138 335t341 138q203 -1 335 -125t132 -331h-201q0 129 -74.5 201.5
t-192.5 72.5t-198 -80t-80 -192v-221q128 135 316 135z" />
    <glyph glyph-name="seven" unicode="7" 
d="M369 0q0 580 512 1223h-731v182h987v-109q-358 -422 -490 -854q-49 -168 -49 -338v-47q0 -20 4 -57h-233z" />
    <glyph glyph-name="eight" unicode="8" 
d="M629 162q125 0 208 59t83 172t-82 173t-209 61q-201 0 -269 -131q-22 -46 -22 -104q1 -111 83 -170q83 -60 208 -60zM385 1026q0 -92 65.5 -154.5t178 -62.5t178 62.5t65.5 154.5t-65.5 154.5t-178 62.5t-178 -62.5t-65.5 -154.5zM1120 379q0 -186 -127 -292.5
t-356 -106.5t-365 103t-135 296q0 135 65.5 214t172.5 124v8q-96 57 -129 104q-61 88 -61.5 237t124.5 257q123 102 319.5 102t320.5 -104q124 -105 124 -281t-115 -264q-35 -27 -75 -51v-8q106 -49 171.5 -125t65.5 -213z" />
    <glyph glyph-name="nine" unicode="9" 
d="M330 973q0 -123 82 -197t202 -74t201 75q82 75 82 196t-82 195t-202 75q-120 0 -201.5 -73.5t-81.5 -196.5zM582 520q-188 0 -320 124t-133 326q0 202 138 328q138 128 345 127.5t346 -131.5t140 -346v-495q0 -197 -139 -335t-341 -138t-334 124t-132 332h200
q0 -129 75 -201.5t193 -72.5t197.5 80t79.5 192v221q-127 -135 -315 -135z" />
    <glyph glyph-name="colon" unicode=":" horiz-adv-x="489" 
d="M141 1047h207v-230h-207v230zM141 227h207v-227h-207v227z" />
    <glyph glyph-name="semicolon" unicode=";" horiz-adv-x="489" 
d="M141 0v227h207v-174l-72 -307h-106l55 254h-84zM141 1047h207v-230h-207v230z" />
    <glyph glyph-name="less" unicode="&#x3c;" 
d="M90 629l1043 403v-184l-879 -328l879 -327v-185l-1043 402v219z" />
    <glyph glyph-name="equal" unicode="=" 
d="M113 217v170h1032v-170h-1032zM113 651v172h1032v-172h-1032z" />
    <glyph glyph-name="greater" unicode="&#x3e;" 
d="M1004 520q-639 238 -877 328v184l1042 -403v-219l-1042 -402v185q219 82 437.5 162.5t439.5 164.5z" />
    <glyph glyph-name="question" unicode="?" horiz-adv-x="1028" 
d="M53 1015q0 52 21.5 124.5t72.5 136.5q125 150 357 149h12q229 0 344 -153q86 -111 86 -253q0 -202 -100.5 -279.5t-134.5 -108.5q-82 -76 -82 -152v-100h-205v131q0 123 159.5 251.5t159.5 248.5q0 92 -53 153q-68 80 -196 80t-195 -90q-43 -59 -43 -139l4 -76h-201
q-6 25 -6 77zM420 227h213v-227h-213v227z" />
    <glyph glyph-name="at" unicode="@" horiz-adv-x="1812" 
d="M868 -313q-573 0 -735 469q-55 160 -55 392t69.5 402t188.5 275q223 203 604 202q573 0 750 -419q61 -146 61 -336q0 -327 -129 -496q-106 -131 -258 -131t-188 107q-10 33 -15 71l-6 -6q-113 -172 -338 -172t-297 139q-27 53 -26.5 197.5t182.5 218.5q139 55 475 55v90
q0 76 -29 109q-57 70 -193 70t-192 -68q-31 -39 -30 -88v-23h-177q-4 20 -4 63.5t65.5 151t338.5 107.5h18q197 0 291 -79t94 -222v-502q0 -78 76 -78q150 0 201 240q20 92 20 249t-99 398.5t-593 241.5q-348 0 -544 -196t-195.5 -574.5t163 -562t506.5 -183.5
q115 0 212.5 25.5t125.5 40.5v-123q-143 -55 -338 -55zM1151 514q-242 0 -327 -26.5t-117.5 -61.5t-32.5 -102q0 -135 203 -136q111 0 193 79t81 210v37z" />
    <glyph glyph-name="A" unicode="A" horiz-adv-x="1335" 
d="M651 1163l-260 -676h531l-258 676h-13zM991 305h-672l-116 -305h-195l549 1405h221l549 -1405h-217z" />
    <glyph glyph-name="B" unicode="B" horiz-adv-x="1333" 
d="M791 182q92 0 156.5 64.5t64.5 157t-64.5 157t-156.5 64.5h-402v-443h402zM770 807q84 0 146 59q62 58 63 146q0 88 -61.5 149.5t-147.5 61.5h-381v-416h381zM823 0h-635v1405h623q154 0 261 -100t108 -244q0 -259 -246 -328v-10q174 -29 250 -191q29 -63 28.5 -189.5
t-114.5 -231.5q-113 -111 -275 -111z" />
    <glyph glyph-name="C" unicode="C" horiz-adv-x="1357" 
d="M1247 535q0 -272 -162 -420q-145 -135 -393 -135t-407 160q-158 160 -158 470v185q0 307 159 469t409 162t395 -140q158 -147 157 -420h-200q0 188 -97 289q-88 88 -245 88q-270 0 -349 -244q-29 -86 -28 -204v-185q0 -340 223 -422q70 -27 193 -26t216 94q94 94 95 279
h192z" />
    <glyph glyph-name="D" unicode="D" horiz-adv-x="1382" 
d="M188 0v1405h488q254 0 409 -156q172 -168 172 -475v-143q0 -307 -172 -475q-156 -156 -409 -156h-488zM676 182q270 0 352 244q29 84 29 205v143q0 340 -230 422q-70 27 -151 27h-287v-1041h287z" />
    <glyph glyph-name="E" unicode="E" horiz-adv-x="1214" 
d="M188 0v1405h922l-27 -182h-694v-414h629v-182h-629v-445h707l28 -182h-936z" />
    <glyph glyph-name="F" unicode="F" horiz-adv-x="1126" 
d="M389 1223v-428h574v-183h-574v-612h-201v1405h885l-26 -182h-658z" />
    <glyph glyph-name="G" unicode="G" horiz-adv-x="1386" 
d="M1243 262q0 -170 12 -262h-118q-25 76 -41 168q-131 -188 -392 -188t-419 160t-158 470v185q0 307 159 469q160 162 406 162t398 -135q152 -134 153 -380h-201q0 168 -92 250t-245 82q-270 0 -349 -244q-29 -86 -28 -204v-185q0 -340 223 -422q70 -27 154 -26
q176 0 259 88t83 285v26h-398v180h594v-479z" />
    <glyph glyph-name="H" unicode="H" horiz-adv-x="1419" 
d="M1030 0v627h-641v-627h-201v1405h201v-596h641v596h201v-1405h-201z" />
    <glyph glyph-name="I" unicode="I" horiz-adv-x="745" 
d="M109 1405h528v-182h-164v-1041h164v-182h-528v182h163v1041h-163v182z" />
    <glyph glyph-name="J" unicode="J" horiz-adv-x="1077" 
d="M59 426h201v-55q0 -92 62.5 -150.5t157.5 -58.5t156.5 56t61.5 153v1034h201v-1022q0 -195 -117 -299t-299 -104h-18q-283 0 -375 227q-31 76 -31 176v43z" />
    <glyph glyph-name="K" unicode="K" horiz-adv-x="1275" 
d="M188 1405h201v-731l610 731h232l-516 -621l532 -784h-233l-426 631l-199 -209v-422h-201v1405z" />
    <glyph glyph-name="L" unicode="L" horiz-adv-x="1097" 
d="M188 0v1405h201v-1223h645l29 -182h-875z" />
    <glyph glyph-name="M" unicode="M" horiz-adv-x="1921" 
d="M1532 0v1169h-12l-486 -1169h-170l-483 1169h-10v-1169h-183v1405h316l452 -1106h9l454 1106h314v-1405h-201z" />
    <glyph glyph-name="N" unicode="N" horiz-adv-x="1421" 
d="M371 0h-183v1405h177l679 -1016l7 2v1014h182v-1405h-170l-686 1028l-6 -2v-1026z" />
    <glyph glyph-name="O" unicode="O" horiz-adv-x="1413" 
d="M1288 610q0 -307 -165 -469t-416.5 -161.5t-416.5 162.5t-165 468v185q0 307 165 469t416.5 162t416.5 -162t165 -469v-185zM1087 795q0 340 -227 422q-72 27 -154 27q-176 -1 -279 -111q-102 -109 -101 -338v-185q0 -340 227 -422q70 -26 153 -26q177 1 280 110
q102 109 101 338v185z" />
    <glyph glyph-name="P" unicode="P" horiz-adv-x="1277" 
d="M389 586v-586h-201v1405h607q178 0 299 -114t120.5 -296t-120.5 -296t-299 -113h-406zM389 1223v-455h387q96 0 167 67t71 161t-70 160t-168 67h-387z" />
    <glyph glyph-name="Q" unicode="Q" horiz-adv-x="1413" 
d="M1087 795q0 340 -227 422q-72 27 -154 27q-176 -1 -279 -111q-102 -109 -101 -338v-185q0 -340 227 -422q70 -26 153 -26q177 1 280 110q102 109 101 338v185zM1021 -297q-124 0 -243.5 47.5t-152.5 233.5q-223 27 -357 178q-143 166 -143 448v185q0 307 165 469
t416.5 162t416.5 -162t165 -469v-185q0 -270 -127 -428t-338 -192q14 -57 49 -84q66 -49 156 -49t213 49l25 8v-143q-121 -68 -245 -68z" />
    <glyph glyph-name="R" unicode="R" horiz-adv-x="1372" 
d="M788 801q90 0 158 59q66 59 66 148v8q0 88 -60.5 147.5t-163.5 59.5h-399v-422h399zM1198 -12q-45 0 -88 12q-123 33 -124 240.5t-85 304.5q-63 74 -156 73h-356v-618h-201v1405h598q289 0 392 -193q34 -66 34 -138q-1 -132 -73 -230t-178 -119v-10q135 -51 196 -205
q29 -72 29 -193t26 -184q25 -51 78 -70v-57q-47 -18 -92 -18z" />
    <glyph glyph-name="S" unicode="S" horiz-adv-x="1284" 
d="M643 162q154 0 243 56t89 154.5t-61.5 144.5t-154.5 75t-201.5 53.5t-263.5 99t-155 279.5t148 307q133 94 353 94t359 -96t140 -297v-24h-201v30q0 100 -82 152.5t-209 52.5q-215 0 -282 -102q-25 -35 -25 -84q0 -82 61.5 -125t154.5 -72t201.5 -54.5t202 -69.5
t155 -118.5t61.5 -198.5q0 -232 -154 -341q-137 -98 -381 -98q-371 0 -491 225q-43 80 -44 194l3 41h200l-2 -43q0 -121 91 -178t245 -57z" />
    <glyph glyph-name="T" unicode="T" horiz-adv-x="1183" 
d="M692 1223v-1223h-200v1223h-441v182h1082v-182h-441z" />
    <glyph glyph-name="U" unicode="U" horiz-adv-x="1392" 
d="M1217 1405v-956q1 -213 -139 -341t-369 -128h-27q-230 0 -368 126t-138 343v956h201v-952q0 -127 89 -209t234.5 -82t230.5 81t85 210v952h201z" />
    <glyph glyph-name="V" unicode="V" horiz-adv-x="1234" 
d="M633 272l397 1133h195l-500 -1405h-215l-500 1405h215l396 -1133h12z" />
    <glyph glyph-name="W" unicode="W" horiz-adv-x="1875" 
d="M932 1016l-297 -1016h-205l-401 1405h215l297 -1059h12l299 1059h195l296 -1059h13l299 1059h194l-411 -1405h-205l-287 1016h-14z" />
    <glyph glyph-name="X" unicode="X" horiz-adv-x="1292" 
d="M641 565l-399 -565h-224l512 727l-464 676h241l344 -502q72 100 159 225.5t165 235.5l29 41h223l-39 -55q-68 -98 -203 -290t-223 -319l510 -739h-242z" />
    <glyph glyph-name="Y" unicode="Y" horiz-adv-x="1171" 
d="M686 0h-201v543l-495 862h229l375 -653h8l371 653h207l-494 -862v-543z" />
    <glyph glyph-name="Z" unicode="Z" horiz-adv-x="1220" 
d="M66 0v78l747 1145h-698v182h1005v-78l-749 -1145h766v-182h-1071z" />
    <glyph glyph-name="bracketleft" unicode="[" horiz-adv-x="600" 
d="M174 -330v1735h346v-113h-180v-1509h180v-113h-346z" />
    <glyph glyph-name="backslash" unicode="\" horiz-adv-x="1228" 
d="M31 1405h164l1003 -1755h-166z" />
    <glyph glyph-name="bracketright" unicode="]" horiz-adv-x="600" 
d="M80 -330v113h180v1509h-180v113h346v-1735h-346z" />
    <glyph glyph-name="asciicircum" unicode="^" horiz-adv-x="1220" 
d="M610 862l-338 -862h-172l404 1047h211l403 -1047h-172q-100 252 -336 862z" />
    <glyph glyph-name="underscore" unicode="_" horiz-adv-x="1421" 
d="M199 -254v123h1024v-123h-1024z" />
    <glyph glyph-name="grave" unicode="`" horiz-adv-x="681" 
d="M375 1178l-236 290l2 7h183l194 -297h-143z" />
    <glyph glyph-name="a" unicode="a" horiz-adv-x="1198" 
d="M991 205q0 -72 71 -72q36 0 81 29v-142q-68 -41 -158 -40q-169 0 -178 188q-125 -188 -365 -188t-315 147q-29 59 -29 211.5t195 230.5q147 59 506 60v96q0 80 -29 115q-62 74 -208 74t-204 -70q-33 -41 -32 -94v-25h-189q-4 21 -4 67t33 101t90 94q123 80 307 80h19
q209 0 309 -83t100 -236v-543zM799 479q-262 0 -350.5 -27.5t-123 -65.5t-34.5 -112q0 -141 215 -141q115 0 204 82t89 223v41z" />
    <glyph glyph-name="b" unicode="b" horiz-adv-x="1193" 
d="M360 522q0 -307 158 -370q49 -18 109 -19q268 0 268 389q0 309 -160 371q-49 20 -108 20q-127 0 -197 -90t-70 -301zM170 0v1475h192v-562q45 63 125 108.5t224.5 45.5t260.5 -136t115 -384v-23q-1 -270 -119 -407t-304 -137q-234 0 -353 186l-67 -166h-74z" />
    <glyph glyph-name="c" unicode="c" horiz-adv-x="1114" 
d="M1014 410q0 -203 -121 -317t-311 -113h-17q-207 0 -333 138t-128 380v49q0 242 128 381t331 139h17q190 0 312 -118t122 -314h-191q0 193 -143 258q-48 20 -108 20q-124 0 -199 -83q-76 -83 -76 -234v-111q0 -182 76 -267t206 -85t190 78t60 199h185z" />
    <glyph glyph-name="d" unicode="d" horiz-adv-x="1193" 
d="M299 522q0 -307 158 -370q49 -18 108 -19q268 0 269 389q0 309 -160 371q-49 20 -109 20q-127 0 -197 -90t-69 -301zM831 1475h193v-1475h-143q-10 39 -27 143q-118 -163 -314 -163t-315 137t-119 407v23q0 248 115 384t309.5 136t300.5 -154v562z" />
    <glyph glyph-name="e" unicode="e" horiz-adv-x="1138" 
d="M838 653q0 123 -72 191t-187 69q-114 0 -188 -70.5t-90 -213.5h537v24zM593 133q142 0 210 103q43 66 43 153h182q0 -186 -123 -298t-315 -111h-8q-215 0 -346 139t-132 383v41q0 244 130 384t341 140h15q194 0 316 -119t122 -323v-146h-731q6 -242 162 -319
q53 -27 134 -27z" />
    <glyph glyph-name="f" unicode="f" horiz-adv-x="692" 
d="M211 1188q0 303 244 303q115 0 192 -39v-141q-88 38 -138 28t-67 -24q-39 -29 -39 -107v-161h244v-154h-244v-893h-192v893h-115v154h115v141z" />
    <glyph glyph-name="g" unicode="g" horiz-adv-x="1163" 
d="M778 -231q66 0 113 37.5t47 87t-34 81t-99 31.5h-422q-49 0 -84 -34.5t-35 -84t35 -84t84 -34.5h395zM350 737.5q0 -96.5 68.5 -135.5t169 -39t170 39t69.5 135.5t-69.5 136t-170 39.5t-169 -39.5t-68.5 -136zM606 410h-139q-61 0 -102 -32t-41 -81t38.5 -78t104.5 -29
h395q123 0 194.5 -75.5t71.5 -206.5t-108 -212t-281 -81h-411q-106 0 -180 78t-74 167t43 152.5t110 91.5q-94 59 -94 170q0 76 44 128.5t120 78.5q-137 78 -137 256q0 145 106 237t316 93h8q117 0 209 -35q145 72 166 203h163q0 -102 -55 -174t-153 -92l-5 -6
q103 -87 103 -227t-106 -233t-306 -93z" />
    <glyph glyph-name="h" unicode="h" horiz-adv-x="1214" 
d="M862 670q0 243 -228 243q-104 0 -188 -84t-84 -206v-623h-192v1475h192v-560q129 152 324 152q256 0 340 -199q29 -70 29 -163v-705h-193v670z" />
    <glyph glyph-name="i" unicode="i" horiz-adv-x="532" 
d="M166 1475h201v-179h-201v179zM170 0v1047h192v-1047h-192z" />
    <glyph glyph-name="j" unicode="j" horiz-adv-x="532" 
d="M166 1475h201v-179h-201v179zM170 -90v1137h192v-1078q0 -182 -56 -266t-200 -84q-106 0 -176 39v143q93 -42 166.5 -25t73.5 134z" />
    <glyph glyph-name="k" unicode="k" horiz-adv-x="1095" 
d="M362 0h-192v1475h192v-1012l467 584h211l-403 -508l430 -539h-233l-314 389l-158 -164v-225z" />
    <glyph glyph-name="l" unicode="l" horiz-adv-x="548" 
d="M178 0v1475h193v-1475h-193z" />
    <glyph glyph-name="m" unicode="m" horiz-adv-x="1775" 
d="M797 670q0 244 -189 243q-100 0 -173 -84t-73 -206v-623h-192v1047h139l27 -154q121 174 329 174t287 -174q76 106 159 140t162 34q159 0 251 -90t92 -272v-705h-193v670q0 244 -188 243q-100 0 -173 -84t-73 -206v-623h-192v670z" />
    <glyph glyph-name="n" unicode="n" horiz-adv-x="1214" 
d="M862 670q0 243 -228 243q-104 0 -188 -84t-84 -206v-623h-192v1047h139l27 -154q133 174 350 174q256 0 340 -199q29 -70 29 -163v-705h-193v670z" />
    <glyph glyph-name="o" unicode="o" horiz-adv-x="1175" 
d="M1069 485q0 -248 -135 -377t-346 -128.5t-346 128.5t-136 377v76q0 248 142 381q129 125 340 125t346 -129t135 -377v-76zM877 543q0 188 -79 279t-210 91q-203 0 -266 -200q-23 -72 -23 -170v-39q0 -188 79 -280t210 -91q203 0 266 203q23 70 23 168v39z" />
    <glyph glyph-name="p" unicode="p" horiz-adv-x="1193" 
d="M895 524q0 307 -158 369q-49 20 -108 20q-129 0 -199 -90t-70 -299q0 -309 160 -372q49 -18 109 -19q127 0 197 90t69 301zM362 -371h-192v1418h143q10 -39 27 -144q118 164 314 164t315 -137t118 -408v-22q-1 -248 -115 -384t-309 -136.5t-301 153.5v-504z" />
    <glyph glyph-name="q" unicode="q" horiz-adv-x="1193" 
d="M834 524q0 307 -158 369q-49 20 -109 20q-129 0 -199 -90t-69 -299q0 -309 160 -372q49 -18 108 -19q127 0 197 90t70 301zM1024 1047v-1416h-193v502q-45 -63 -124.5 -108t-225 -45t-260.5 136t-115 384v22q0 270 125 416q113 129 299 129q234 0 353 -186l67 166h74z
" />
    <glyph glyph-name="r" unicode="r" horiz-adv-x="1003" 
d="M774 662v45q0 72 -37 116q-67 90 -171 90t-154 -86t-50 -202v-625h-192v1047h137l29 -156q31 92 168 149q59 27 171 27.5t193 -93.5q82 -94 82 -235l-6 -77h-170z" />
    <glyph glyph-name="s" unicode="s" horiz-adv-x="1093" 
d="M776 764q0 150 -227 150t-234 -138q0 -57 50.5 -85.5t126 -45t288.5 -54.5t213 -276q0 -178 -122 -257t-322 -78h-31q-210 0 -318 90t-108 213l2 45h191v-21q0 -174 186 -174t258 38t72 107.5t-50.5 101.5t-126 49t-162.5 31.5t-163 46.5t-126 88t-50 161
q0 145 114.5 228t313.5 83h18q183 0 291 -83t109 -202l-2 -37h-191v19z" />
    <glyph glyph-name="t" unicode="t" horiz-adv-x="708" 
d="M527 129q38 0 112 31v-144q-73 -36 -191 -36t-181.5 69.5t-63.5 229.5v614h-115v154h121l65 333h121v-333h244v-154h-244v-625q0 -117 74 -133q20 -6 58 -6z" />
    <glyph glyph-name="u" unicode="u" horiz-adv-x="1265" 
d="M1044 205q0 -72 70 -72q35 0 80 29v-142q-61 -40 -130 -40t-132.5 26.5t-69.5 145.5q-80 -117 -227 -158q-49 -14 -116 -14q-151 0 -253 86q-106 96 -106 276v705h192v-670q0 -244 228 -244q104 0 188 84t84 207v623h192v-842z" />
    <glyph glyph-name="v" unicode="v" horiz-adv-x="1048" 
d="M627 0h-205l-397 1047h204l299 -801h9l299 801h188z" />
    <glyph glyph-name="w" unicode="w" horiz-adv-x="1660" 
d="M823 731l-237 -731h-201l-344 1047h199l243 -766h9l247 766h189l243 -766h9l247 766h189l-342 -1047h-201l-242 731h-8z" />
    <glyph glyph-name="x" unicode="x" horiz-adv-x="1062" 
d="M37 0l385 530l-365 517h230l252 -357l258 357h211l-367 -504l385 -543h-229l-273 383l-276 -383h-211z" />
    <glyph glyph-name="y" unicode="y" horiz-adv-x="1048" 
d="M238 -381q-78 0 -142 29v157q139 -64 223 11q70 59 113 194l-407 1037h204l301 -773h9l297 773h188l-391 -1006q-86 -211 -143.5 -282.5t-115.5 -105.5t-136 -34z" />
    <glyph glyph-name="z" unicode="z" horiz-adv-x="948" 
d="M74 0v78l510 815h-480v154h746v-76l-512 -817h528v-154h-792z" />
    <glyph glyph-name="braceleft" unicode="{" horiz-adv-x="645" 
d="M82 621q104 0 143 61q14 23 15 55v381q0 242 202 277q57 10 121 10v-102q-70 0 -100 -23q-61 -45 -61 -134t-5.5 -187.5t-9.5 -199t-43 -155.5t-139 -55v-19q100 0 139 -55t43 -155.5t9 -198.5t5 -171t15.5 -100.5t46.5 -50.5t100 -22v-103q-150 0 -225 52
q-98 68 -98 235v381q0 57 -46 87t-112 30v162z" />
    <glyph glyph-name="bar" unicode="|" horiz-adv-x="507" 
d="M172 -408v1885h164v-1885h-164z" />
    <glyph glyph-name="braceright" unicode="}" horiz-adv-x="645" 
d="M563 459q-102 0 -143 -62q-14 -23 -14 -55v-381q0 -242 -201 -276q-59 -10 -123 -11v103q70 0 100 22q62 45 62 134t5 187.5t9 199t43 155.5t139 55v19q-100 0 -139 55t-43 155.5t-9 199.5t-5 171t-15.5 99.5t-46.5 50.5t-100 23v102q150 0 225 -51q98 -68 99 -236v-381
q0 -88 102 -110q27 -6 55 -6v-162z" />
    <glyph glyph-name="asciitilde" unicode="~" horiz-adv-x="1411" 
d="M463 592q-113 0 -238 -80q-53 -37 -94 -80v174q41 43 90 76q127 84 244 84q66 0 124 -21.5t116.5 -46t119 -46t129.5 -21.5q121 0 238 80q53 35 94 80v-175q-78 -86 -202 -136t-219 -15t-153.5 59.5t-119 46t-129.5 21.5z" />
    <glyph glyph-name="uni00A0" unicode="&#xa0;" horiz-adv-x="499" 
 />
    <glyph glyph-name="exclamdown" unicode="&#xa1;" horiz-adv-x="520" 
d="M328 686q4 -61 49 -1046h-236l52 1046h135zM156 1044h206v-227h-206v227z" />
    <glyph glyph-name="cent" unicode="&#xa2;" horiz-adv-x="1079" 
d="M1008 590q0 -188 -106 -302t-281 -126l22 -176h-149l20 176q-184 12 -300 149t-116 367v49q0 229 115 367t301 151l-20 174h149l-22 -174q270 -27 358 -262q29 -76 29 -168h-191q0 193 -141 258q-50 21 -110 21q-123 1 -199 -83q-76 -83 -76 -235v-110
q0 -182 75.5 -267.5t205.5 -85.5t190.5 78t60.5 199h185z" />
    <glyph glyph-name="sterling" unicode="&#xa3;" horiz-adv-x="1222" 
d="M59 782h258v240q0 195 117 299t299 104h19q283 0 374 -227q31 -76 31 -176v-18h-201v30q0 92 -62.5 150.5t-157.5 58.5t-156.5 -56.5t-61.5 -152.5v-252h383v-182h-383l-35 -418h621v-182h-971v182h184v418h-258v182z" />
    <glyph glyph-name="currency" unicode="&#xa4;" horiz-adv-x="1277" 
d="M272 690.5q0 -151.5 107.5 -259t259.5 -107.5t259.5 107.5t107.5 259t-107.5 259t-259.5 107.5t-259.5 -107.5t-107.5 -259zM641 1198q166 0 307 -106l111 110l98 -98l-110 -111q100 -139 100 -305t-105 -305l113 -111l-98 -98l-113 111q-137 -103 -304 -103t-306 101
l-109 -109l-98 98l109 109q-104 139 -104 306t101 310l-104 107l98 98l105 -106q143 102 309 102z" />
    <glyph glyph-name="yen" unicode="&#xa5;" horiz-adv-x="1298" 
d="M121 901h221l-289 504h230l374 -653h9l370 653h207l-289 -504h228v-131h-303l-84 -149h387v-132h-432v-489h-201v489h-428v132h383l-86 149h-297v131z" />
    <glyph glyph-name="brokenbar" unicode="&#xa6;" horiz-adv-x="550" 
d="M184 1405h183v-547h-183v547zM184 545h183v-545h-183v545z" />
    <glyph glyph-name="section" unicode="&#xa7;" horiz-adv-x="1052" 
d="M268 591.5q0 -65.5 36 -110.5t92.5 -79.5t127 -64.5t140.5 -63q118 80 118 184q-1 142 -163 209.5t-232 100.5q-39 -23 -79 -67t-40 -109.5zM78 537q0 203 174 307q-66 47 -108 110.5t-42 159.5q0 145 115 228t313 83h19q183 0 291 -83t108 -201l-2 -37h-190v18
q0 150 -232 150q-186 0 -221 -92q-8 -25 -8 -45q0 -72 50 -119t126 -85t163 -73t163 -80q176 -104 176 -270q0 -201 -176 -307q152 -109 151.5 -262.5t-115 -236.5t-313.5 -83h-18q-182 0 -290 83t-110 202l2 37h191v-19q0 -150 231 -149q186 0 219 92q10 25 11 45
q0 72 -50.5 119t-126 85t-162.5 72.5t-163 79.5q-176 105 -176 271z" />
    <glyph glyph-name="dieresis" unicode="&#xa8;" horiz-adv-x="901" 
d="M551 1497h186v-201h-186v201zM166 1497h184v-201h-184v201z" />
    <glyph glyph-name="copyright" unicode="&#xa9;" horiz-adv-x="1597" 
d="M796 1341q-272 0 -456 -183t-184 -456q0 -272 183 -456t457 -184t458 182q186 182 186 457t-186 458q-186 182 -458 182zM1524 704q0 -150 -57.5 -282.5t-156 -231t-230.5 -154.5t-282 -56t-282.5 56t-231 154.5t-154.5 230.5t-56 283t56 281.5t154.5 229t230.5 154.5
t283 56t282.5 -56t230 -154.5t156 -229.5t57.5 -281zM1006 821q0 97 -60 149t-141 52q-145 0 -199 -113q-16 -37 -16 -88v-235q0 -102 63 -152t153 -51q90 0 147 57.5t57 165.5h133q0 -168 -94 -255t-238 -87h-10q-152 0 -250 90t-98 260v177q0 168 98 258t248 90h10
q233 0 309 -191q25 -66 25 -153h-137v26z" />
    <glyph glyph-name="ordfeminine" unicode="&#xaa;" horiz-adv-x="849" 
d="M322 764q-209 0 -209 182q0 133 116 176q94 37 310 37v58q0 115 -146 114q-86 0 -123 -43q-20 -23 -20 -55v-16h-113q-4 16 -4 28q0 82 74 131t188 49h11q250 0 249 -194v-330q0 -23 11.5 -33t26 -10t55.5 16v-86q-49 -25 -95 -24q-100 0 -110 115q-76 -115 -221 -115z
M539 1069q-145 0 -227.5 -22.5t-82.5 -94.5q0 -53 33.5 -73.5t99.5 -20.5t121.5 48t55.5 136v27z" />
    <glyph glyph-name="guillemotleft" unicode="&#xab;" horiz-adv-x="942" 
d="M350 334l-250 356l250 357h105l-193 -357l193 -356h-105zM725 334l-252 356l252 357h102l-190 -357l190 -356h-102z" />
    <glyph glyph-name="logicalnot" unicode="&#xac;" horiz-adv-x="1263" 
d="M1139 356h-172v381h-891v191h1063v-572z" />
    <glyph glyph-name="uni00AD" unicode="&#xad;" horiz-adv-x="800" 
d="M141 653h518v-200h-518v200z" />
    <glyph glyph-name="registered" unicode="&#xae;" horiz-adv-x="1597" 
d="M991 891q0 49 -38 83t-91 34h-227v-244h227q53 0 91 35t38 84v8zM1002 312q-28 30 -27 130q0 100 -45 164q-37 47 -92 47h-203v-377h-131v844h383q92 0 163 -59t70.5 -141t-42.5 -135.5t-95 -73.5q82 -33 111 -146q12 -43 12 -98t8 -93t55 -55v-36q-103 -40 -167 29z
M797 1343q-273 0 -457 -183t-184 -457q0 -273 183 -457t457 -184t460 182t186 457t-185 460q-186 182 -460 182zM1524 704q0 -150 -57.5 -282.5t-156 -231t-230.5 -154.5t-282 -56t-282.5 56t-231 154.5t-154.5 230.5t-56 283t56 281.5t154.5 229t230.5 154.5t283 56
t282.5 -56t230 -154.5t156 -229.5t57.5 -281z" />
    <glyph glyph-name="macron" unicode="&#xaf;" horiz-adv-x="942" 
d="M145 1356v151h652v-151h-652z" />
    <glyph glyph-name="degree" unicode="&#xb0;" horiz-adv-x="806" 
d="M594 1116q0 78 -56 131t-136 53t-135 -53q-56 -53 -56 -131t56 -131t135 -53q80 0 136 53t56 131zM711 1116q-1 -127 -93 -216t-215 -89t-215 89t-92 215t89 218t216 92t218.5 -91t91.5 -218z" />
    <glyph glyph-name="plusminus" unicode="&#xb1;" 
d="M713 745h440v-172h-440v-299h-170v299h-439v172h439v302h170v-302zM113 0v170h1030v-170h-1030z" />
    <glyph glyph-name="twosuperior" unicode="&#xb2;" horiz-adv-x="786" 
d="M125 881q0 113 104 200l226 168q88 63 88 151t-72 124q-29 14 -100.5 14t-112.5 -70q-23 -41 -22 -79v-29h-109q-2 10 -2 21q0 76 39 141q72 117 235 116q129 0 199 -77q55 -66 55 -139.5t-25.5 -129t-113.5 -121.5l-215 -163q-53 -41 -53 -54h409v-100h-530v27z" />
    <glyph glyph-name="threesuperior" unicode="&#xb3;" horiz-adv-x="743" 
d="M197 1069q1 -125 165 -125t164 133q0 68 -53 94.5t-121 26.5h-84v100h86q63 0 108.5 31t45.5 93t-44 89t-104 27t-102.5 -29.5t-42.5 -89.5v-10h-111v21q0 96 72 152t182 56h11q106 0 177.5 -56t71.5 -152q1 -118 -122 -175q141 -51 141 -192q0 -100 -76 -159.5
t-192 -59.5h-15q-129 0 -198.5 62.5t-69.5 166.5v8h111v-12z" />
    <glyph glyph-name="acute" unicode="&#xb4;" horiz-adv-x="681" 
d="M139 1178l193 297h184l2 -7l-237 -290h-142z" />
    <glyph glyph-name="mu" unicode="&#xb5;" horiz-adv-x="1253" 
d="M1053 205q0 -72 69 -72q35 0 80 29v-142q-61 -40 -130 -40t-132.5 26.5t-69.5 145.5q-80 -117 -227 -158q-49 -14 -102 -14q-109 0 -193 51l12 -97v-264h-192v1377h192v-670q0 -244 228 -244q105 0 188.5 84t83.5 207v623h193v-842z" />
    <glyph glyph-name="paragraph" unicode="&#xb6;" horiz-adv-x="1073" 
d="M51 961q0 179 129 311t318 133h487v-125h-135v-1626h-129v1626h-148v-1626h-129v858q-168 20 -280.5 145t-112.5 304z" />
    <glyph glyph-name="periodcentered" unicode="&#xb7;" horiz-adv-x="489" 
d="M141 705h207v-230h-207v230z" />
    <glyph glyph-name="cedilla" unicode="&#xb8;" horiz-adv-x="716" 
d="M346 -35q227 0 227 -182q0 -100 -84 -150q-63 -37 -131 -36q-133 0 -215 45l19 100q82 -41 149 -41q135 0 135 92q0 41 -31.5 62.5t-74.5 21.5h-43v88h49z" />
    <glyph glyph-name="onesuperior" unicode="&#xb9;" horiz-adv-x="684" 
d="M416 1630v-665h166v-101h-480v101h203v518h-203v71q115 8 271 76h43z" />
    <glyph glyph-name="ordmasculine" unicode="&#xba;" horiz-adv-x="802" 
d="M694 1071q0 -151 -82 -229t-211 -78t-211 78t-81 229v47q0 152 84 234q80 74 208.5 73.5t208.5 -73.5q84 -82 84 -234v-47zM578 1106q0 121 -52.5 173t-124 52t-124 -52t-52.5 -173v-23q0 -121 52.5 -173t124 -52t124 52.5t52.5 172.5v23z" />
    <glyph glyph-name="guillemotright" unicode="&#xbb;" horiz-adv-x="942" 
d="M489 334l191 356l-191 357h103l250 -357l-250 -356h-103zM115 334l192 356l-192 357h104l252 -357l-252 -356h-104z" />
    <glyph glyph-name="onequarter" unicode="&#xbc;" horiz-adv-x="1437" 
d="M1178 287v215q37 76 59 151h51v-366h94v-101h-94v-186h-110v186h-355v103q154 233 236 477h112q-35 -132 -115 -278t-130 -201h252zM387 1401v-666h166v-100h-479v100h202v518h-202v72q115 8 270 76h43zM406 0h-113l860 1405h107z" />
    <glyph glyph-name="onehalf" unicode="&#xbd;" horiz-adv-x="1486" 
d="M895 27q0 113 104 200l226 168q88 63 88 151t-72 124q-29 14 -100.5 14t-112.5 -70q-23 -41 -22 -79v-29h-109q-2 10 -2 21q0 76 39 141q72 117 235 116q129 0 191 -71t62.5 -145t-25 -129.5t-113.5 -121.5l-215 -163q-53 -39 -53 -54h409v-100h-530v27zM381 1401v-666
h166v-100h-479v100h202v518h-202v72q115 8 270 76h43zM365 0h-113l860 1405h107z" />
    <glyph glyph-name="threequarters" unicode="&#xbe;" horiz-adv-x="1429" 
d="M174 836q0 -125 165 -125t165 133q0 68 -53.5 94.5t-120.5 26.5h-84v100h86q63 0 108 30.5t45 92.5t-44 89.5t-104 27.5t-102 -30t-42 -89v-10h-111v20q0 96 71.5 152.5t182.5 56.5h10q106 0 178 -56.5t72 -152.5q0 -117 -123 -174q141 -51 141 -193q0 -100 -75.5 -159.5
t-192.5 -59.5h-14q-129 0 -199 62.5t-70 167.5v8h111v-12zM1167 287v215q37 76 60 151h51v-366h94v-101h-94v-186h-111v186h-354v103q154 233 236 477h112q-35 -132 -115 -278t-131 -201h252zM406 0h-113l860 1405h107z" />
    <glyph glyph-name="questiondown" unicode="&#xbf;" horiz-adv-x="1013" 
d="M514 -379h-12q-229 0 -346 154q-84 113 -84 253q0 200 128.5 301t158.5 145t30 93v101h205v-131q0 -96 -82 -183q-37 -37 -78 -69.5t-78 -69.5q-82 -86 -82 -178t61 -163t189 -71t195 91q43 59 43 139l-4 76h200q21 -86 -7.5 -180.5t-82.5 -157.5q-123 -150 -354 -150z
M598 819h-213v228h213v-228z" />
    <glyph glyph-name="Agrave" unicode="&#xc0;" horiz-adv-x="1335" 
d="M594 1536l-236 291l2 6h183l194 -297h-143zM651 1163l-260 -676h531l-258 676h-13zM991 305h-672l-116 -305h-195l549 1405h221l549 -1405h-217z" />
    <glyph glyph-name="Aacute" unicode="&#xc1;" horiz-adv-x="1335" 
d="M598 1536l193 297h184l2 -6l-238 -291h-141zM651 1163l-260 -676h531l-258 676h-13zM991 305h-672l-116 -305h-195l549 1405h221l549 -1405h-217z" />
    <glyph glyph-name="Acircumflex" unicode="&#xc2;" horiz-adv-x="1335" 
d="M584 1833h159l277 -297h-164l-192 182l-195 -182h-164zM651 1163l-260 -676h531l-258 676h-13zM991 305h-672l-116 -305h-195l549 1405h221l549 -1405h-217z" />
    <glyph glyph-name="Atilde" unicode="&#xc3;" horiz-adv-x="1335" 
d="M1059 1749q0 -84 -55 -143q-61 -70 -175 -70q-61 0 -142 23.5t-122 35t-82 11.5q-92 0 -112 -70h-103q0 133 129 193q43 20 106 20t177 -36q113 -36 164 -36q90 0 112 72h103zM651 1163l-260 -676h531l-258 676h-13zM991 305h-672l-116 -305h-195l549 1405h221l549 -1405
h-217z" />
    <glyph glyph-name="Adieresis" unicode="&#xc4;" horiz-adv-x="1335" 
d="M762 1735h186v-201h-186v201zM377 1735h184v-201h-184v201zM651 1163l-260 -676h531l-258 676h-13zM991 305h-672l-116 -305h-195l549 1405h221l549 -1405h-217z" />
    <glyph glyph-name="Aring" unicode="&#xc5;" horiz-adv-x="1335" 
d="M782 1691q0 46 -33.5 77.5t-80.5 31.5t-81 -31.5t-34 -79t34 -78t81 -30.5t80.5 32t33.5 78zM666 1896q84 0 146 -59t62 -145t-60 -146.5t-145 -60.5t-147 58q-62 57 -61 145q0 88 60.5 148t144.5 60zM651 1163l-260 -676h531l-258 676h-13zM991 305h-672l-116 -305h-195
l549 1405h221l549 -1405h-217z" />
    <glyph glyph-name="AE" unicode="&#xc6;" horiz-adv-x="2013" 
d="M819 1163l-354 -676h530l-164 676h-12zM1817 809v-182h-643l110 -445h610l29 -182h-809l-76 305h-671l-160 -305h-193l746 1405h1149l-27 -182h-856l102 -414h689z" />
    <glyph glyph-name="Ccedilla" unicode="&#xc7;" horiz-adv-x="1357" 
d="M692 -35q227 0 228 -182q0 -100 -84 -150q-63 -37 -131 -36q-133 0 -216 45l19 100q82 -41 147 -41q137 0 138 92q0 41 -32 62.5t-75 21.5h-43v88h49zM1247 535q0 -272 -162 -420q-145 -135 -393 -135t-407 160q-158 160 -158 470v185q0 307 159 469t409 162t395 -140
q158 -147 157 -420h-200q0 188 -97 289q-88 88 -245 88q-270 0 -349 -244q-29 -86 -28 -204v-185q0 -340 223 -422q70 -27 193 -26t216 94q94 94 95 279h192z" />
    <glyph glyph-name="Egrave" unicode="&#xc8;" horiz-adv-x="1214" 
d="M604 1536l-235 291l2 6h182l195 -297h-144zM188 0v1405h922l-27 -182h-694v-414h629v-182h-629v-445h707l28 -182h-936z" />
    <glyph glyph-name="Eacute" unicode="&#xc9;" horiz-adv-x="1214" 
d="M582 1536l192 297h184l3 -6l-238 -291h-141zM188 0v1405h922l-27 -182h-694v-414h629v-182h-629v-445h707l28 -182h-936z" />
    <glyph glyph-name="Ecircumflex" unicode="&#xca;" horiz-adv-x="1214" 
d="M565 1833h160l276 -297h-163l-193 182l-194 -182h-164zM188 0v1405h922l-27 -182h-694v-414h629v-182h-629v-445h707l28 -182h-936z" />
    <glyph glyph-name="Edieresis" unicode="&#xcb;" horiz-adv-x="1214" 
d="M750 1737h186v-201h-186v201zM365 1737h184v-201h-184v201zM188 0v1405h922l-27 -182h-694v-414h629v-182h-629v-445h707l28 -182h-936z" />
    <glyph glyph-name="Igrave" unicode="&#xcc;" horiz-adv-x="745" 
d="M301 1536l-235 291l2 6h182l194 -297h-143zM109 1405h528v-182h-164v-1041h164v-182h-528v182h163v1041h-163v182z" />
    <glyph glyph-name="Iacute" unicode="&#xcd;" horiz-adv-x="745" 
d="M295 1536l192 297h185l2 -6l-238 -291h-141zM109 1405h528v-182h-164v-1041h164v-182h-528v182h163v1041h-163v182z" />
    <glyph glyph-name="Icircumflex" unicode="&#xce;" horiz-adv-x="745" 
d="M295 1833h160l276 -297h-164l-192 182l-195 -182h-164zM109 1405h528v-182h-164v-1041h164v-182h-528v182h163v1041h-163v182z" />
    <glyph glyph-name="Idieresis" unicode="&#xcf;" horiz-adv-x="745" 
d="M473 1737h186v-201h-186v201zM88 1737h184v-201h-184v201zM109 1405h528v-182h-164v-1041h164v-182h-528v182h163v1041h-163v182z" />
    <glyph glyph-name="Eth" unicode="&#xd0;" horiz-adv-x="1394" 
d="M688 182q270 0 352 244q29 84 29 205v143q0 340 -229 422q-70 27 -152 27h-287v-455h297v-133h-297v-453h287zM10 768h191v637h487q254 0 410 -156q172 -168 172 -475v-143q0 -307 -172 -475q-156 -156 -410 -156h-487v635h-191v133z" />
    <glyph glyph-name="Ntilde" unicode="&#xd1;" horiz-adv-x="1421" 
d="M1108 1749q0 -84 -55 -143q-61 -70 -174 -70q-61 0 -142.5 23.5t-122.5 35t-82 11.5q-92 0 -112 -70h-103q0 133 129 193q43 20 106 20t177 -36q113 -36 164 -36q90 0 113 72h102zM371 0h-183v1405h177l679 -1016l7 2v1014h182v-1405h-170l-686 1028l-6 -2v-1026z" />
    <glyph glyph-name="Ograve" unicode="&#xd2;" horiz-adv-x="1413" 
d="M641 1536l-235 291l2 6h182l194 -297h-143zM1288 610q0 -307 -165 -469t-416.5 -161.5t-416.5 162.5t-165 468v185q0 307 165 469t416.5 162t416.5 -162t165 -469v-185zM1087 795q0 340 -227 422q-72 27 -154 27q-176 -1 -279 -111q-102 -109 -101 -338v-185
q0 -340 227 -422q70 -26 153 -26q177 1 280 110q102 109 101 338v185z" />
    <glyph glyph-name="Oacute" unicode="&#xd3;" horiz-adv-x="1413" 
d="M627 1536l192 297h185l2 -6l-238 -291h-141zM1288 610q0 -307 -165 -469t-416.5 -161.5t-416.5 162.5t-165 468v185q0 307 165 469t416.5 162t416.5 -162t165 -469v-185zM1087 795q0 340 -227 422q-72 27 -154 27q-176 -1 -279 -111q-102 -109 -101 -338v-185
q0 -340 227 -422q70 -26 153 -26q177 1 280 110q102 109 101 338v185z" />
    <glyph glyph-name="Ocircumflex" unicode="&#xd4;" horiz-adv-x="1413" 
d="M623 1833h159l277 -297h-164l-193 182l-194 -182h-164zM1288 610q0 -307 -165 -469t-416.5 -161.5t-416.5 162.5t-165 468v185q0 307 165 469t416.5 162t416.5 -162t165 -469v-185zM1087 795q0 340 -227 422q-72 27 -154 27q-176 -1 -279 -111q-102 -109 -101 -338v-185
q0 -340 227 -422q70 -26 153 -26q177 1 280 110q102 109 101 338v185z" />
    <glyph glyph-name="Otilde" unicode="&#xd5;" horiz-adv-x="1413" 
d="M1102 1749q0 -85 -58 -149t-172 -64q-61 0 -142 23.5t-122 35t-82 11.5q-92 0 -112 -70h-103q0 133 127 193q45 20 110 20t173 -37q115 -35 166 -35q90 0 112 72h103zM1288 610q0 -307 -165 -469t-416.5 -161.5t-416.5 162.5t-165 468v185q0 307 165 469t416.5 162
t416.5 -162t165 -469v-185zM1087 795q0 340 -227 422q-72 27 -154 27q-176 -1 -279 -111q-102 -109 -101 -338v-185q0 -340 227 -422q70 -26 153 -26q177 1 280 110q102 109 101 338v185z" />
    <glyph glyph-name="Odieresis" unicode="&#xd6;" horiz-adv-x="1413" 
d="M809 1737h186v-201h-186v201zM424 1737h184v-201h-184v201zM1288 610q0 -307 -165 -469t-416.5 -161.5t-416.5 162.5t-165 468v185q0 307 165 469t416.5 162t416.5 -162t165 -469v-185zM1087 795q0 340 -227 422q-72 27 -154 27q-176 -1 -279 -111q-102 -109 -101 -338
v-185q0 -340 227 -422q70 -26 153 -26q177 1 280 110q102 109 101 338v185z" />
    <glyph glyph-name="multiply" unicode="&#xd7;" 
d="M203 834l112 120l316 -311l313 311l113 -120l-314 -312l314 -309l-113 -121l-313 307l-316 -307l-112 121l313 309z" />
    <glyph glyph-name="Oslash" unicode="&#xd8;" horiz-adv-x="1413" 
d="M832 162q257 0 255 448v185q0 188 -75 305l-527 -879q90 -59 347 -59zM730 1243q-406 0 -404 -448v-185q0 -201 77 -309l527 881q-92 61 -200 61zM707 1425q184 0 319 -84l121 203h131l-164 -272q174 -166 174 -477v-185q0 -307 -165 -469t-416 -161q-180 0 -318 81
l-115 -194h-131l158 262q-176 168 -176 481v185q0 307 165 469t417 161z" />
    <glyph glyph-name="Ugrave" unicode="&#xd9;" horiz-adv-x="1392" 
d="M641 1536l-235 291l2 6h182l194 -297h-143zM1217 1405v-956q1 -213 -139 -341t-369 -128h-27q-230 0 -368 126t-138 343v956h201v-952q0 -127 89 -209t234.5 -82t230.5 81t85 210v952h201z" />
    <glyph glyph-name="Uacute" unicode="&#xda;" horiz-adv-x="1392" 
d="M623 1536l192 297h184l2 -6l-237 -291h-141zM1217 1405v-956q1 -213 -139 -341t-369 -128h-27q-230 0 -368 126t-138 343v956h201v-952q0 -127 89 -209t234.5 -82t230.5 81t85 210v952h201z" />
    <glyph glyph-name="Ucircumflex" unicode="&#xdb;" horiz-adv-x="1392" 
d="M616 1833h160l277 -297h-164l-193 182l-194 -182h-164zM1217 1405v-956q1 -213 -139 -341t-369 -128h-27q-230 0 -368 126t-138 343v956h201v-952q0 -127 89 -209t234.5 -82t230.5 81t85 210v952h201z" />
    <glyph glyph-name="Udieresis" unicode="&#xdc;" horiz-adv-x="1392" 
d="M797 1737h186v-201h-186v201zM412 1737h184v-201h-184v201zM1217 1405v-956q1 -213 -139 -341t-369 -128h-27q-230 0 -368 126t-138 343v956h201v-952q0 -127 89 -209t234.5 -82t230.5 81t85 210v952h201z" />
    <glyph glyph-name="Yacute" unicode="&#xdd;" horiz-adv-x="1171" 
d="M530 1536l193 297h184l2 -6l-237 -291h-142zM686 0h-201v543l-495 862h229l375 -653h8l371 653h207l-494 -862v-543z" />
    <glyph glyph-name="Thorn" unicode="&#xde;" horiz-adv-x="1296" 
d="M389 969v-455h387q96 0 167 67t71 161t-70 160t-168 67h-387zM389 332v-332h-201v1405h201v-254h406q178 0 299 -114t120.5 -296t-120.5 -296t-299 -113h-406z" />
    <glyph glyph-name="germandbls" unicode="&#xdf;" horiz-adv-x="1257" 
d="M1157 410q0 -78 -36 -157t-97 -134q-129 -119 -324 -119h-170v154h150q123 0 204 84t81 198t-83 193q-83 80 -202 80h-150v151h134q106 0 180 71t74 174t-66 167.5t-182.5 64.5t-190 -78.5t-73.5 -207.5v-1186h-193v1028h-119v154h119q4 205 136 325q133 120 323 119
t314 -105t124 -274q0 -102 -57.5 -189t-147.5 -122l4 -8q109 -41 178.5 -142.5t69.5 -240.5z" />
    <glyph glyph-name="agrave" unicode="&#xe0;" horiz-adv-x="1198" 
d="M500 1178l-236 290l2 7h183l194 -297h-143zM991 205q0 -72 71 -72q36 0 81 29v-142q-68 -41 -158 -40q-169 0 -178 188q-125 -188 -365 -188t-315 147q-29 59 -29 211.5t195 230.5q147 59 506 60v96q0 80 -29 115q-62 74 -208 74t-204 -70q-33 -41 -32 -94v-25h-189
q-4 21 -4 67t33 101t90 94q123 80 307 80h19q209 0 309 -83t100 -236v-543zM799 479q-262 0 -350.5 -27.5t-123 -65.5t-34.5 -112q0 -141 215 -141q115 0 204 82t89 223v41z" />
    <glyph glyph-name="aacute" unicode="&#xe1;" horiz-adv-x="1198" 
d="M504 1178l192 297h185l2 -7l-238 -290h-141zM991 205q0 -72 71 -72q36 0 81 29v-142q-68 -41 -158 -40q-169 0 -178 188q-125 -188 -365 -188t-315 147q-29 59 -29 211.5t195 230.5q147 59 506 60v96q0 80 -29 115q-62 74 -208 74t-204 -70q-33 -41 -32 -94v-25h-189
q-4 21 -4 67t33 101t90 94q123 80 307 80h19q209 0 309 -83t100 -236v-543zM799 479q-262 0 -350.5 -27.5t-123 -65.5t-34.5 -112q0 -141 215 -141q115 0 204 82t89 223v41z" />
    <glyph glyph-name="acircumflex" unicode="&#xe2;" horiz-adv-x="1198" 
d="M489 1475h160l277 -297h-164l-193 182l-194 -182h-164zM991 205q0 -72 71 -72q36 0 81 29v-142q-68 -41 -158 -40q-169 0 -178 188q-125 -188 -365 -188t-315 147q-29 59 -29 211.5t195 230.5q147 59 506 60v96q0 80 -29 115q-62 74 -208 74t-204 -70q-33 -41 -32 -94
v-25h-189q-4 21 -4 67t33 101t90 94q123 80 307 80h19q209 0 309 -83t100 -236v-543zM799 479q-262 0 -350.5 -27.5t-123 -65.5t-34.5 -112q0 -141 215 -141q115 0 204 82t89 223v41z" />
    <glyph glyph-name="atilde" unicode="&#xe3;" horiz-adv-x="1198" 
d="M965 1475q0 -84 -56 -144q-61 -70 -174 -69q-61 0 -142 23.5t-122 34.5t-82 11q-92 0 -113 -69h-102q0 133 129 192q83 39 161.5 18.5t156.5 -44.5t129 -25q90 0 112 72h103zM991 205q0 -72 71 -72q36 0 81 29v-142q-68 -41 -158 -40q-169 0 -178 188
q-125 -188 -365 -188t-315 147q-29 59 -29 211.5t195 230.5q147 59 506 60v96q0 80 -29 115q-62 74 -208 74t-204 -70q-33 -41 -32 -94v-25h-189q-4 21 -4 67t33 101t90 94q123 80 307 80h19q209 0 309 -83t100 -236v-543zM799 479q-262 0 -350.5 -27.5t-123 -65.5
t-34.5 -112q0 -141 215 -141q115 0 204 82t89 223v41z" />
    <glyph glyph-name="adieresis" unicode="&#xe4;" horiz-adv-x="1198" 
d="M664 1475h186v-201h-186v201zM279 1475h184v-201h-184v201zM991 205q0 -72 71 -72q36 0 81 29v-142q-68 -41 -158 -40q-169 0 -178 188q-125 -188 -365 -188t-315 147q-29 59 -29 211.5t195 230.5q147 59 506 60v96q0 80 -29 115q-62 74 -208 74t-204 -70
q-33 -41 -32 -94v-25h-189q-4 21 -4 67t33 101t90 94q123 80 307 80h19q209 0 309 -83t100 -236v-543zM799 479q-262 0 -350.5 -27.5t-123 -65.5t-34.5 -112q0 -141 215 -141q115 0 204 82t89 223v41z" />
    <glyph glyph-name="aring" unicode="&#xe5;" horiz-adv-x="1198" 
d="M682 1344q0 46 -34 78t-81 32t-80.5 -31.5t-33.5 -79t33.5 -78t80.5 -30.5t81 31.5t34 77.5zM774 1345q0 -86 -60.5 -146t-145.5 -60t-146 58q-62 58 -62 145t60.5 147.5t144.5 60.5t148 -59q61 -60 61 -146zM991 205q0 -72 71 -72q36 0 81 29v-142q-68 -41 -158 -40
q-169 0 -178 188q-125 -188 -365 -188t-315 147q-29 59 -29 211.5t195 230.5q147 59 506 60v96q0 80 -29 115q-62 74 -208 74t-204 -70q-33 -41 -32 -94v-25h-189q-4 21 -4 67t33 101t90 94q123 80 307 80h19q209 0 309 -83t100 -236v-543zM799 479q-262 0 -350.5 -27.5
t-123 -65.5t-34.5 -112q0 -141 215 -141q115 0 204 82t89 223v41z" />
    <glyph glyph-name="ae" unicode="&#xe6;" horiz-adv-x="1832" 
d="M1532 653q0 123 -72 191t-187 69q-114 0 -187.5 -70.5t-90.5 -213.5h537v24zM799 479q-262 0 -350.5 -27.5t-123 -65.5t-34.5 -112q0 -141 215 -141q115 0 204 82t89 223v41zM1270 1067h14q195 0 317 -119t121 -323v-146h-731q6 -242 162 -319q53 -27 134 -27
q142 0 210 103q43 66 43 153h182q0 -186 -123 -298t-315 -111h-8q-137 0 -242.5 58t-167.5 169q-70 -111 -186.5 -169t-239.5 -58q-238 0 -313 147q-29 59 -29 211.5t195 230.5q147 59 506 60v96q0 80 -29 115q-62 74 -208 74t-204 -70q-33 -41 -32 -94v-25h-189
q-4 21 -4 67t33 101t90 94q123 80 307 80h19q258 0 354 -131q123 131 334 131z" />
    <glyph glyph-name="ccedilla" unicode="&#xe7;" horiz-adv-x="1114" 
d="M569 -35q227 0 228 -182q0 -100 -84 -150q-63 -37 -131 -36q-133 0 -215 45l18 100q82 -41 147 -41q137 0 138 92q0 41 -32 62.5t-75 21.5h-43v88h49zM1014 410q0 -203 -121 -317t-311 -113h-17q-207 0 -333 138t-128 380v49q0 242 128 381t331 139h17q190 0 312 -118
t122 -314h-191q0 193 -143 258q-48 20 -108 20q-124 0 -199 -83q-76 -83 -76 -234v-111q0 -182 76 -267t206 -85t190 78t60 199h185z" />
    <glyph glyph-name="egrave" unicode="&#xe8;" horiz-adv-x="1138" 
d="M512 1178l-236 290l3 7h182l194 -297h-143zM838 653q0 123 -72 191t-187 69q-114 0 -188 -70.5t-90 -213.5h537v24zM593 133q142 0 210 103q43 66 43 153h182q0 -186 -123 -298t-315 -111h-8q-215 0 -346 139t-132 383v41q0 244 130 384t341 140h15q194 0 316 -119
t122 -323v-146h-731q6 -242 162 -319q53 -27 134 -27z" />
    <glyph glyph-name="eacute" unicode="&#xe9;" horiz-adv-x="1138" 
d="M504 1178l192 297h185l2 -7l-238 -290h-141zM838 653q0 123 -72 191t-187 69q-114 0 -188 -70.5t-90 -213.5h537v24zM593 133q142 0 210 103q43 66 43 153h182q0 -186 -123 -298t-315 -111h-8q-215 0 -346 139t-132 383v41q0 244 130 384t341 140h15q194 0 316 -119
t122 -323v-146h-731q6 -242 162 -319q53 -27 134 -27z" />
    <glyph glyph-name="ecircumflex" unicode="&#xea;" horiz-adv-x="1138" 
d="M500 1475h159l277 -297h-164l-192 182l-195 -182h-164zM838 653q0 123 -72 191t-187 69q-114 0 -188 -70.5t-90 -213.5h537v24zM593 133q142 0 210 103q43 66 43 153h182q0 -186 -123 -298t-315 -111h-8q-215 0 -346 139t-132 383v41q0 244 130 384t341 140h15
q194 0 316 -119t122 -323v-146h-731q6 -242 162 -319q53 -27 134 -27z" />
    <glyph glyph-name="edieresis" unicode="&#xeb;" horiz-adv-x="1138" 
d="M678 1475h186v-201h-186v201zM293 1475h184v-201h-184v201zM838 653q0 123 -72 191t-187 69q-114 0 -188 -70.5t-90 -213.5h537v24zM593 133q142 0 210 103q43 66 43 153h182q0 -186 -123 -298t-315 -111h-8q-215 0 -346 139t-132 383v41q0 244 130 384t341 140h15
q194 0 316 -119t122 -323v-146h-731q6 -242 162 -319q53 -27 134 -27z" />
    <glyph glyph-name="igrave" unicode="&#xec;" horiz-adv-x="532" 
d="M217 1178l-235 290l2 7h182l194 -297h-143zM170 0v1047h192v-1047h-192z" />
    <glyph glyph-name="iacute" unicode="&#xed;" horiz-adv-x="532" 
d="M174 1178l193 297h184l2 -7l-238 -290h-141zM170 0v1047h192v-1047h-192z" />
    <glyph glyph-name="icircumflex" unicode="&#xee;" horiz-adv-x="532" 
d="M188 1475h160l277 -297h-164l-193 182l-194 -182h-164zM170 0v1047h192v-1047h-192z" />
    <glyph glyph-name="idieresis" unicode="&#xef;" horiz-adv-x="532" 
d="M367 1475h186v-201h-186v201zM-18 1475h184v-201h-184v201zM170 0v1047h192v-1047h-192z" />
    <glyph glyph-name="eth" unicode="&#xf0;" horiz-adv-x="1177" 
d="M877 543q0 188 -79 279t-210 91q-203 0 -266 -200q-23 -72 -23 -170v-39q0 -188 79 -280t210 -91q203 0 266 203q23 70 23 168v39zM1069 561v-76q0 -248 -135 -377t-346 -128.5t-346 128.5t-136 377v76q0 248 142 381q129 125 340 125q31 0 65 -6q-74 90 -170 178
l-186 -88q-20 16 -37.5 33.5t-36.5 34.5q94 45 193 90q-47 41 -98.5 71.5t-84.5 53.5l121 59q92 -47 195 -115l192 90q16 -18 33 -34.5t33 -34.5l-178 -82q305 -248 403 -531q37 -106 37 -225z" />
    <glyph glyph-name="ntilde" unicode="&#xf1;" horiz-adv-x="1214" 
d="M1018 1475q0 -84 -58 -149t-172 -64q-61 0 -142 23.5t-122 34.5t-82 11q-92 0 -112 -69h-103q0 133 129 192q84 39 162 18.5t156 -44.5t129 -25q90 0 112 72h103zM862 670q0 243 -228 243q-104 0 -188 -84t-84 -206v-623h-192v1047h139l27 -154q133 174 350 174
q256 0 340 -199q29 -70 29 -163v-705h-193v670z" />
    <glyph glyph-name="ograve" unicode="&#xf2;" horiz-adv-x="1175" 
d="M518 1178l-235 290l2 7h182l195 -297h-144zM1069 485q0 -248 -135 -377t-346 -128.5t-346 128.5t-136 377v76q0 248 142 381q129 125 340 125t346 -129t135 -377v-76zM877 543q0 188 -79 279t-210 91q-203 0 -266 -200q-23 -72 -23 -170v-39q0 -188 79 -280t210 -91
q203 0 266 203q23 70 23 168v39z" />
    <glyph glyph-name="oacute" unicode="&#xf3;" horiz-adv-x="1175" 
d="M522 1178l193 297h184l2 -7l-237 -290h-142zM1069 485q0 -248 -135 -377t-346 -128.5t-346 128.5t-136 377v76q0 248 142 381q129 125 340 125t346 -129t135 -377v-76zM877 543q0 188 -79 279t-210 91q-203 0 -266 -200q-23 -72 -23 -170v-39q0 -188 79 -280t210 -91
q203 0 266 203q23 70 23 168v39z" />
    <glyph glyph-name="ocircumflex" unicode="&#xf4;" horiz-adv-x="1175" 
d="M506 1475h160l276 -297h-164l-192 182l-195 -182h-164zM1069 485q0 -248 -135 -377t-346 -128.5t-346 128.5t-136 377v76q0 248 142 381q129 125 340 125t346 -129t135 -377v-76zM877 543q0 188 -79 279t-210 91q-203 0 -266 -200q-23 -72 -23 -170v-39q0 -188 79 -280
t210 -91q203 0 266 203q23 70 23 168v39z" />
    <glyph glyph-name="otilde" unicode="&#xf5;" horiz-adv-x="1175" 
d="M983 1475q0 -84 -58 -149t-171 -64q-61 0 -142.5 23.5t-122 34.5t-81.5 11q-92 0 -113 -69h-102q0 133 126 192q87 39 164.5 18.5t155.5 -44.5t129 -25q90 0 113 72h102zM1069 485q0 -248 -135 -377t-346 -128.5t-346 128.5t-136 377v76q0 248 142 381q129 125 340 125
t346 -129t135 -377v-76zM877 543q0 188 -79 279t-210 91q-203 0 -266 -200q-23 -72 -23 -170v-39q0 -188 79 -280t210 -91q203 0 266 203q23 70 23 168v39z" />
    <glyph glyph-name="odieresis" unicode="&#xf6;" horiz-adv-x="1175" 
d="M686 1475h186v-201h-186v201zM301 1475h184v-201h-184v201zM1069 485q0 -248 -135 -377t-346 -128.5t-346 128.5t-136 377v76q0 248 142 381q129 125 340 125t346 -129t135 -377v-76zM877 543q0 188 -79 279t-210 91q-203 0 -266 -200q-23 -72 -23 -170v-39
q0 -188 79 -280t210 -91q203 0 266 203q23 70 23 168v39z" />
    <glyph glyph-name="divide" unicode="&#xf7;" 
d="M545 942h170v-186h-170v186zM545 289h170v-185h-170v185zM104 436v172h1049v-172h-1049z" />
    <glyph glyph-name="oslash" unicode="&#xf8;" horiz-adv-x="1175" 
d="M299 504q0 -156 59 -250l385 616q-68 43 -176.5 43t-188.5 -91q-79 -91 -79 -279v-39zM877 543q0 156 -62 252l-385 -619q63 -43 140 -43q148 0 228 91q79 91 79 280v39zM1069 561v-76q0 -248 -135 -377t-346 -128q-139 0 -246 55l-92 -148h-121l129 205
q-152 135 -152 393v76q0 248 142 381q129 125 340 125q135 0 243 -55l95 151h121l-132 -209q154 -135 154 -393z" />
    <glyph glyph-name="ugrave" unicode="&#xf9;" horiz-adv-x="1265" 
d="M549 1178l-236 290l2 7h183l194 -297h-143zM1044 205q0 -72 70 -72q35 0 80 29v-142q-61 -40 -130 -40t-132.5 26.5t-69.5 145.5q-80 -117 -227 -158q-49 -14 -116 -14q-151 0 -253 86q-106 96 -106 276v705h192v-670q0 -244 228 -244q104 0 188 84t84 207v623h192v-842z
" />
    <glyph glyph-name="uacute" unicode="&#xfa;" horiz-adv-x="1265" 
d="M530 1178l193 297h184l2 -7l-237 -290h-142zM1044 205q0 -72 70 -72q35 0 80 29v-142q-61 -40 -130 -40t-132.5 26.5t-69.5 145.5q-80 -117 -227 -158q-49 -14 -116 -14q-151 0 -253 86q-106 96 -106 276v705h192v-670q0 -244 228 -244q104 0 188 84t84 207v623h192v-842
z" />
    <glyph glyph-name="ucircumflex" unicode="&#xfb;" horiz-adv-x="1265" 
d="M518 1475h160l276 -297h-163l-193 182l-195 -182h-163zM1044 205q0 -72 70 -72q35 0 80 29v-142q-61 -40 -130 -40t-132.5 26.5t-69.5 145.5q-80 -117 -227 -158q-49 -14 -116 -14q-151 0 -253 86q-106 96 -106 276v705h192v-670q0 -244 228 -244q104 0 188 84t84 207
v623h192v-842z" />
    <glyph glyph-name="udieresis" unicode="&#xfc;" horiz-adv-x="1265" 
d="M702 1475h187v-201h-187v201zM317 1475h185v-201h-185v201zM1044 205q0 -72 70 -72q35 0 80 29v-142q-61 -40 -130 -40t-132.5 26.5t-69.5 145.5q-80 -117 -227 -158q-49 -14 -116 -14q-151 0 -253 86q-106 96 -106 276v705h192v-670q0 -244 228 -244q104 0 188 84
t84 207v623h192v-842z" />
    <glyph glyph-name="yacute" unicode="&#xfd;" horiz-adv-x="1048" 
d="M455 1178l192 297h184l3 -7l-238 -290h-141zM238 -381q-78 0 -142 29v157q139 -64 223 11q70 59 113 194l-407 1037h204l301 -773h9l297 773h188l-391 -1006q-86 -211 -143.5 -282.5t-115.5 -105.5t-136 -34z" />
    <glyph glyph-name="thorn" unicode="&#xfe;" horiz-adv-x="1193" 
d="M895 524q0 307 -158 369q-49 20 -108 20q-129 0 -199 -90t-70 -299q0 -309 160 -372q49 -18 109 -19q127 0 197 90t69 301zM362 -371h-192v1846h192v-543q112 135 300 135t307 -137t118 -408v-22q-1 -248 -115 -384t-309 -136.5t-301 153.5v-504z" />
    <glyph glyph-name="ydieresis" unicode="&#xff;" horiz-adv-x="1048" 
d="M631 1475h186v-201h-186v201zM246 1475h184v-201h-184v201zM238 -381q-78 0 -142 29v157q139 -64 223 11q70 59 113 194l-407 1037h204l301 -773h9l297 773h188l-391 -1006q-86 -211 -143.5 -282.5t-115.5 -105.5t-136 -34z" />
    <glyph glyph-name="dotlessi" unicode="&#x131;" horiz-adv-x="532" 
d="M170 0v1047h192v-1047h-192z" />
    <glyph glyph-name="Lslash" unicode="&#x141;" horiz-adv-x="1103" 
d="M195 1405h200v-494l285 148v-146l-285 -147v-584h645l29 -182h-874v664l-127 -64v145l127 64v596z" />
    <glyph glyph-name="lslash" unicode="&#x142;" horiz-adv-x="610" 
d="M209 1475h192v-574l168 84v-143l-168 -84v-758h-192v659l-168 -84v144l168 84v672z" />
    <glyph glyph-name="OE" unicode="&#x152;" horiz-adv-x="2113" 
d="M1087 795q0 340 -227 422q-72 27 -154 27q-176 -1 -279 -111q-102 -109 -101 -338v-185q0 -340 227 -422q70 -26 153 -26q177 1 280 110q102 109 101 338v185zM700 -20q-244 0 -410 162q-165 162 -165 468v185q0 307 165 469t406.5 161.5t390.5 -139.5v119h922l-27 -182
h-694v-414h629v-182h-629v-445h707l28 -182h-936v119q-143 -139 -387 -139z" />
    <glyph glyph-name="oe" unicode="&#x153;" horiz-adv-x="1910" 
d="M1610 653q0 123 -72 191t-187 69q-114 0 -187.5 -70.5t-90.5 -213.5h537v24zM877 543q0 188 -79 279t-210 91q-203 0 -266 -200q-23 -72 -23 -170v-39q0 -188 79 -280t210 -91q203 0 266 203q23 70 23 168v39zM1348 1067h14q194 0 316 -119t122 -323v-146h-731
q6 -242 162 -319q53 -27 134 -27q142 0 210 103q43 66 43 153h182q0 -186 -123 -298t-315 -111h-8q-246 0 -379 178q-127 -178 -387 -178q-211 0 -346 128t-136 377v76q0 248 142 381q129 125 340 125q260 0 387 -178q131 178 373 178z" />
    <glyph glyph-name="Scaron" unicode="&#x160;" horiz-adv-x="1284" 
d="M289 1833h164l194 -182l193 182h164l-277 -297h-160zM643 162q154 0 243 56t89 154.5t-61.5 144.5t-154.5 75t-201.5 53.5t-263.5 99t-155 279.5t148 307q133 94 353 94t359 -96t140 -297v-24h-201v30q0 100 -82 152.5t-209 52.5q-215 0 -282 -102q-25 -35 -25 -84
q0 -82 61.5 -125t154.5 -72t201.5 -54.5t202 -69.5t155 -118.5t61.5 -198.5q0 -232 -154 -341q-137 -98 -381 -98q-371 0 -491 225q-43 80 -44 194l3 41h200l-2 -43q0 -121 91 -178t245 -57z" />
    <glyph glyph-name="scaron" unicode="&#x161;" horiz-adv-x="1093" 
d="M186 1475h164l195 -183l192 183h164l-276 -297h-160zM776 764q0 150 -227 150t-234 -138q0 -57 50.5 -85.5t126 -45t288.5 -54.5t213 -276q0 -178 -122 -257t-322 -78h-31q-210 0 -318 90t-108 213l2 45h191v-21q0 -174 186 -174t258 38t72 107.5t-50.5 101.5t-126 49
t-162.5 31.5t-163 46.5t-126 88t-50 161q0 145 114.5 228t313.5 83h18q183 0 291 -83t109 -202l-2 -37h-191v19z" />
    <glyph glyph-name="Ydieresis" unicode="&#x178;" horiz-adv-x="1171" 
d="M709 1735h186v-201h-186v201zM324 1735h184v-201h-184v201zM686 0h-201v543l-495 862h229l375 -653h8l371 653h207l-494 -862v-543z" />
    <glyph glyph-name="Zcaron" unicode="&#x17d;" horiz-adv-x="1220" 
d="M256 1833h164l194 -182l193 182h164l-277 -297h-159zM66 0v78l747 1145h-698v182h1005v-78l-749 -1145h766v-182h-1071z" />
    <glyph glyph-name="zcaron" unicode="&#x17e;" horiz-adv-x="948" 
d="M117 1475h164l194 -183l193 183h163l-276 -297h-160zM74 0v78l510 815h-480v154h746v-76l-512 -817h528v-154h-792z" />
    <glyph glyph-name="florin" unicode="&#x192;" horiz-adv-x="737" 
d="M594 1491q106 0 172 -39l-18 -141q-62 29 -120 29t-81 -17q-47 -37 -58 -115l-24 -161h246l-19 -154h-246l-145 -1012q-20 -137 -100 -197.5t-192 -60.5t-173 39l17 141q86 -40 164.5 -24.5t93.5 127.5l145 987h-121l19 154h120l27 186q39 258 293 258z" />
    <glyph glyph-name="circumflex" unicode="&#x2c6;" horiz-adv-x="1097" 
d="M467 1475h160l276 -297h-164l-192 182l-195 -182h-164z" />
    <glyph glyph-name="caron" unicode="&#x2c7;" horiz-adv-x="1097" 
d="M188 1475h164l195 -183l192 183h164l-276 -297h-160z" />
    <glyph glyph-name="breve" unicode="&#x2d8;" horiz-adv-x="1064" 
d="M928 1509q0 -92 -120 -173t-277 -81t-275 82t-117 172h137q16 -55 88 -91t167 -36t168 36t89 91h140z" />
    <glyph glyph-name="dotaccent" unicode="&#x2d9;" horiz-adv-x="573" 
d="M422 1370q0 -57 -40 -95t-95.5 -38t-95 40t-39.5 96t38.5 95t96 39t96.5 -40t39 -97z" />
    <glyph glyph-name="ring" unicode="&#x2da;" horiz-adv-x="696" 
d="M463 1322q0 46 -34 78t-81 32t-81 -32t-34 -79t34 -78t81 -31t81 32t34 78zM346 1528q84 0 146 -60t63 -145q0 -86 -60.5 -146.5t-145.5 -60.5t-146 58t-61 146q0 87 60 147.5t144 60.5z" />
    <glyph glyph-name="ogonek" unicode="&#x2db;" horiz-adv-x="696" 
d="M340 -293q-196 0 -199 152q0 45 37 80.5t74 60.5h110q-31 -16 -62.5 -50t-31.5 -69q0 -78 90 -78q46 0 138 29l26 -76q-84 -49 -182 -49z" />
    <glyph glyph-name="tilde" unicode="&#x2dc;" horiz-adv-x="745" 
d="M788 1468q0 -84 -55 -143q-61 -70 -174 -70q-61 0 -142 24t-122 35t-82 11q-92 0 -113 -70h-102q0 133 129 193q43 20 102 20t181 -34q113 -37 163 -37q90 0 113 71h102z" />
    <glyph glyph-name="hungarumlaut" unicode="&#x2dd;" horiz-adv-x="905" 
d="M422 1178l192 297h185l2 -7l-236 -290h-143zM104 1178l195 297h182l2 -7l-235 -290h-144z" />
    <glyph glyph-name="pi" unicode="&#x3c0;" horiz-adv-x="1286" 
d="M1040 895v-584q0 -215 31 -311h-182q-35 53 -35 293v602h-356q-16 -367 -97 -717q-25 -113 -51 -178h-184q88 244 131 676q12 123 14 219q-170 0 -243 -25l-27 117q84 59 330 60h866l-18 -152h-179z" />
    <glyph glyph-name="endash" unicode="&#x2013;" horiz-adv-x="1306" 
d="M141 457v194h1024v-194h-1024z" />
    <glyph glyph-name="emdash" unicode="&#x2014;" horiz-adv-x="2166" 
d="M147 457v192h1864v-192h-1864z" />
    <glyph glyph-name="quoteleft" unicode="&#x2018;" horiz-adv-x="458" 
d="M332 1151v-227h-207v174l72 307h106l-55 -254h84z" />
    <glyph glyph-name="quoteright" unicode="&#x2019;" horiz-adv-x="448" 
d="M125 1178v227h207v-174l-72 -307h-106l55 254h-84z" />
    <glyph glyph-name="quotesinglbase" unicode="&#x201a;" horiz-adv-x="487" 
d="M141 0v227h207v-174l-72 -307h-106l55 254h-84z" />
    <glyph glyph-name="quotedblleft" unicode="&#x201c;" horiz-adv-x="749" 
d="M623 1151v-227h-207v174l71 307h107l-55 -254h84zM332 1151v-227h-207v174l72 307h106l-55 -254h84z" />
    <glyph glyph-name="quotedblright" unicode="&#x201d;" horiz-adv-x="739" 
d="M125 1178v227h207v-174l-72 -307h-106l55 254h-84zM416 1178v227h207v-174l-72 -307h-107l56 254h-84z" />
    <glyph glyph-name="quotedblbase" unicode="&#x201e;" horiz-adv-x="778" 
d="M141 0v227h207v-174l-72 -307h-106l55 254h-84zM432 0v227h207v-174l-72 -307h-106l55 254h-84z" />
    <glyph glyph-name="dagger" unicode="&#x2020;" horiz-adv-x="1044" 
d="M578 891l40 -1239h-192l41 1239l-420 -37v190l420 -34l-35 395h180l-34 -395l419 34v-190z" />
    <glyph glyph-name="daggerdbl" unicode="&#x2021;" horiz-adv-x="1091" 
d="M492 156q-15 138 -35 368q23 256 35 365q-96 -10 -420 -35v190l420 -36q-10 106 -35 397h178q-25 -291 -35 -397l420 36v-190q-98 8 -197.5 16.5t-222.5 18.5q12 -109 35 -365q-20 -230 -35 -368q301 23 420 34v-190l-420 37q12 -113 35 -395h-178q23 283 35 395
l-420 -37v190q104 -10 209.5 -18t210.5 -16z" />
    <glyph glyph-name="bullet" unicode="&#x2022;" horiz-adv-x="1228" 
d="M613 391q-128 0 -217 92q-89 93 -89 223t90 220t216 90t217.5 -91t91.5 -219t-90 -221q-90 -94 -219 -94z" />
    <glyph glyph-name="ellipsis" unicode="&#x2026;" horiz-adv-x="1505" 
d="M1155 227h209v-227h-209v227zM649 227h209v-227h-209v227zM141 227h209v-227h-209v227z" />
    <glyph glyph-name="perthousand" unicode="&#x2030;" horiz-adv-x="2115" 
d="M1925 479q0 51 -31.5 86t-89.5 35t-91.5 -35t-33.5 -86v-248q0 -51 33 -85.5t91 -34.5t90 34.5t32 85.5v248zM2056 246q0 -104 -68 -176t-180 -72h-12q-111 0 -180 72q-68 72 -68 176v219q0 104 69 176t179 72h12q111 0 180 -72t68 -176v-219zM1245 479q0 51 -31.5 86
t-91 35t-92.5 -35t-33 -86v-248q0 -51 33 -85.5t92.5 -34.5t91 34.5t31.5 85.5v248zM1376 246q0 -104 -68 -176t-180 -72h-14q-111 0 -180 72q-68 72 -68 176v219q0 104 69 176t179 72h14q111 0 180 -72t68 -176v-219zM446 1169q0 51 -31.5 86t-91 35t-92 -34.5t-32.5 -86.5
v-247q0 -51 32.5 -86t92 -35t91 34.5t31.5 86.5v247zM578 936q0 -104 -69 -176t-179 -72h-15q-111 0 -179 72t-68 176v219q0 104 67 176q70 72 180 72h15q112 0 180 -72t68 -176v-219zM369 0h-144l856 1405h140z" />
    <glyph glyph-name="guilsinglleft" unicode="&#x2039;" horiz-adv-x="569" 
d="M350 334l-250 356l250 357h105l-193 -357l193 -356h-105z" />
    <glyph glyph-name="guilsinglright" unicode="&#x203a;" horiz-adv-x="569" 
d="M115 334l192 356l-192 357h104l250 -357l-250 -356h-104z" />
    <glyph glyph-name="fraction" unicode="&#x2044;" horiz-adv-x="974" 
d="M125 0h-121l860 1405h115z" />
    <glyph glyph-name="Euro" unicode="&#x20ac;" horiz-adv-x="1150" 
d="M880 -16q-222 0 -392 136t-222 367h-205v134h185q-2 18 -2 38v78q0 16 2 35h-185v131h203q52 240 224 378t407 138q72 0 180 -16v-186q-70 20 -162 20q-166 0 -283.5 -91t-162.5 -243h405v-131h-430q-4 -16 -4 -35v-78q0 -20 4 -38h430v-134h-401q49 -152 170 -237.5
t287 -85.5q57 0 147 26v-186q-90 -20 -195 -20z" />
    <glyph glyph-name="trademark" unicode="&#x2122;" horiz-adv-x="1837" 
d="M905 590h-119v815h203q134 -340 248 -617l252 617h201v-815h-134v323q0 160 -4 322l-262 -645h-127q-66 160 -129 319.5t-129 319.5v-639zM483 1282v-692h-133v692h-256v123h643v-123h-254z" />
    <glyph glyph-name="Omega" unicode="&#x2126;" horiz-adv-x="1431" 
d="M1300 690q0 -346 -202 -526q86 8 172 20h71v-184h-540v100q143 27 214.5 142.5t71.5 365.5v160q0 383 -219 455q-68 23 -200.5 22t-225.5 -112q-92 -111 -92 -365v-160q0 -356 158 -458q53 -35 125 -50v-100h-541v184h72q41 -6 82 -10t92 -10q-201 170 -201 543v51
q0 340 166 512q147 154 397 153h35q391 0 520 -358q45 -127 45 -307v-68z" />
    <glyph glyph-name="partialdiff" unicode="&#x2202;" horiz-adv-x="1157" 
d="M829 461q0 117 -81.5 194.5t-206.5 77.5t-207 -77.5t-82 -194.5v-41q0 -117 82 -195t207 -78t206.5 78t81.5 195v41zM352 1425h211q201 0 332 -134t131 -341v-497q0 -211 -135 -342t-342 -131h-17q-206 0 -340 128t-134 331q0 204 126 324q127 120 318 120q92 0 181 -39
t146 -113v246q0 104 -79.5 188t-196.5 84h-201v176z" />
    <glyph glyph-name="Delta" unicode="&#x2206;" horiz-adv-x="1273" 
d="M231 154h811l-405 1069zM1223 0h-1172v133l479 1272h211l482 -1272v-133z" />
    <glyph glyph-name="product" unicode="&#x220f;" horiz-adv-x="1533" 
d="M1249 1251v-1452h-209v1452h-546v-1452h-209v1452h-236v199h1436v-199h-236z" />
    <glyph glyph-name="summation" unicode="&#x2211;" horiz-adv-x="1241" 
d="M55 -201v129l566 699l-541 688v135h1063v-195h-756v-8l473 -596l-516 -635l2 -8h834v-209h-1125z" />
    <glyph glyph-name="minus" unicode="&#x2212;" 
d="M104 639h1049v-186h-1049v186z" />
    <glyph glyph-name="radical" unicode="&#x221a;" horiz-adv-x="1159" 
d="M498 -303q-188 485 -346 903l-158 -61l-41 123l332 139q63 -180 168.5 -462t108.5 -294l26 -106q111 432 215 863t211 863h164l-496 -1968h-184z" />
    <glyph glyph-name="infinity" unicode="&#x221e;" horiz-adv-x="1564" 
d="M1159 791q-113 0 -246 -152q-33 -35 -59 -61q100 -121 152 -158q139 -95 207.5 -58t93.5 68q51 61 51 151.5t-56.5 150t-142.5 59.5zM203 574q0 -90 57 -152t158 -62t217 121q33 33 61 64l19 20q-150 225 -316 226q-90 0 -143 -63.5t-53 -153.5zM386 231q-122 -1 -216 97
t-94 246t96 245q92 99 224 99t223.5 -68t171.5 -168q41 41 79.5 83t83.5 75q98 78 226 78t218 -96t89 -248q1 -151 -99 -247q-100 -95 -229 -96q-92 0 -181 52.5t-198 185.5q-104 -121 -162 -160q-110 -78 -232 -78z" />
    <glyph glyph-name="integral" unicode="&#x222b;" horiz-adv-x="546" 
d="M172 1307q0 129 111 186q86 43 213 43v-100q-55 0 -99 -19q-80 -39 -80 -98q57 -1282 58 -1602q0 -131 -111 -188q-78 -41 -211 -41v102q102 0 156 62q18 22 18 57q-55 1223 -55 1598z" />
    <glyph glyph-name="approxequal" unicode="&#x2248;" 
d="M381 285q-111 0 -236 -80q-53 -37 -94 -80v174q41 43 90 76q125 84 244 84q66 0 124 -21.5t116.5 -46t119 -46t129.5 -21.5q121 0 238 79q53 35 94 80v-174q-78 -86 -201 -136t-219 -15t-154.5 59.5t-118.5 46t-132 21.5zM381 713q-111 0 -236 -80q-53 -37 -94 -80v174
q41 43 90 76q125 84 244 84q66 0 124 -21.5t116.5 -46t119 -46t129.5 -21.5q121 0 238 79q53 35 94 80v-174q-78 -86 -201 -136t-219 -15t-154.5 59.5t-118.5 46t-132 21.5z" />
    <glyph glyph-name="notequal" unicode="&#x2260;" 
d="M1145 821v-170h-340q-47 -66 -93 -132t-94 -132h527v-172h-633l-152 -215h-167q100 145 151 215h-229v172h338l186 264h-524v170h633l159 226h162l-156 -226h232z" />
    <glyph glyph-name="lessequal" unicode="&#x2264;" 
d="M100 170h1045v-170h-1045v170zM1145 213q-758 231 -1043 315v220q262 80 521.5 159.5t521.5 157.5v-184q-621 -172 -879 -242q621 -172 879 -242v-184z" />
    <glyph glyph-name="greaterequal" unicode="&#x2265;" 
d="M1159 0h-1044v170h1044v-170zM115 1065q23 -6 1042 -317v-220q-285 -84 -1042 -315v184q270 74 876 242q-346 92 -876 242v184z" />
    <glyph glyph-name="lozenge" unicode="&#x25ca;" horiz-adv-x="1003" 
d="M504 1251l-275 -549l275 -550q135 276 272 550q-137 273 -272 549zM397 0l-338 702l338 703h211l336 -703l-336 -702h-211z" />
    <glyph glyph-name="uniF8FF" unicode="&#xf8ff;" horiz-adv-x="0" 
 />
    <glyph glyph-name="fi" unicode="&#xfb01;" horiz-adv-x="1230" 
d="M868 1475h201v-179h-201v179zM872 0v1047h193v-1047h-193zM211 1188q0 303 244 303q115 0 192 -39v-141q-88 38 -138 28t-67 -24q-39 -29 -39 -107v-161h244v-154h-244v-893h-192v893h-115v154h115v141z" />
    <glyph glyph-name="fl" unicode="&#xfb02;" horiz-adv-x="1243" 
d="M872 0v1475h193v-1475h-193zM211 1188q0 303 244 303q115 0 192 -39v-141q-88 38 -138 28t-67 -24q-39 -29 -39 -107v-161h244v-154h-244v-893h-192v893h-115v154h115v141z" />
    </font>
</defs>
</svg>
